<?xml version="1.0" standalone="no"?>
<!DOCTYPE svg PUBLIC "-//W3C//DTD SVG 20010904//EN"
 "http://www.w3.org/TR/2001/REC-SVG-20010904/DTD/svg10.dtd">
<svg version="1.0" xmlns="http://www.w3.org/2000/svg"
 width="860.000000pt" height="281.000000pt" viewBox="0 0 860.000000 281.000000"
 preserveAspectRatio="xMidYMid meet">

<g transform="translate(0.000000,281.000000) scale(0.100000,-0.100000)"
fill="#000000" stroke="none">
<path d="M5200 2299 c-309 -229 -609 -433 -726 -492 -50 -25 -51 -25 -80 -8
-30 18 -131 122 -219 224 -27 32 -55 55 -61 53 -7 -3 -158 -110 -336 -238
-706 -511 -1288 -922 -1352 -955 -17 -9 -39 -12 -55 -8 -34 8 -147 79 -258
161 -70 51 -93 64 -113 59 -90 -23 -615 -285 -935 -467 -253 -145 -703 -416
-730 -440 -5 -5 33 7 85 26 104 37 1229 449 1405 514 l110 40 205 -204 206
-204 314 330 c173 181 317 330 320 330 3 0 62 -68 130 -150 l125 -151 19 23
c10 13 194 247 408 521 214 273 391 497 393 497 2 0 85 -116 186 -257 100
-142 184 -260 186 -263 2 -2 37 29 76 70 40 41 232 240 427 443 194 202 357
366 361 365 4 -2 250 -300 548 -663 298 -363 544 -660 545 -660 2 0 85 94 185
210 99 116 184 208 188 206 5 -3 147 -169 316 -370 170 -201 325 -384 345
-406 l37 -40 408 -109 c225 -59 410 -106 412 -104 1 1 -117 94 -263 206 -210
161 -365 292 -736 624 l-469 421 -169 -87 -169 -88 -34 24 c-103 73 -418 392
-872 884 -119 129 -219 234 -222 234 -3 -1 -67 -46 -141 -101z"/>
</g>
</svg>
